<?xml version="1.0" encoding="UTF-8"?>
<svg version="1.1" xmlns="http://www.w3.org/2000/svg" width="16" height="16">
<path d="M0 0 C0.94552734 0.16242187 0.94552734 0.16242187 1.91015625 0.328125 C3.91015625 3.328125 3.91015625 3.328125 3.53515625 6.515625 C3.32890625 7.44375 3.12265625 8.371875 2.91015625 9.328125 C3.57015625 9.328125 4.23015625 9.328125 4.91015625 9.328125 C4.91015625 7.348125 4.91015625 5.368125 4.91015625 3.328125 C5.57015625 3.328125 6.23015625 3.328125 6.91015625 3.328125 C6.60256447 5.30806041 6.28894945 7.28706099 5.97265625 9.265625 C5.79863281 10.36777344 5.62460938 11.46992188 5.4453125 12.60546875 C4.91015625 15.328125 4.91015625 15.328125 3.91015625 16.328125 C1.91216053 16.42686316 -0.08941533 16.45784299 -2.08984375 16.453125 C-3.18296875 16.45570312 -4.27609375 16.45828125 -5.40234375 16.4609375 C-8.08984375 16.328125 -8.08984375 16.328125 -9.08984375 15.328125 C-9.25114955 12.26331479 -9.07134616 10.27263222 -8.08984375 7.328125 C-7.84234375 5.78125 -7.84234375 5.78125 -7.58984375 4.203125 C-6.71830508 -0.80822233 -4.73396851 0.17183189 0 0 Z " fill="#4E3814" transform="translate(9.08984375,-0.328125)"/>
<path d="M0 0 C0.66 0 1.32 0 2 0 C1.34 3.96 0.68 7.92 0 12 C-3.96 12 -7.92 12 -12 12 C-12 7 -12 7 -11 6 C-9.14712498 5.92773498 -7.29166122 5.9161878 -5.4375 5.9375 C-4.42558594 5.94652344 -3.41367188 5.95554687 -2.37109375 5.96484375 C-1.19740234 5.98224609 -1.19740234 5.98224609 0 6 C0 4.02 0 2.04 0 0 Z " fill="#AE7824" transform="translate(14,3)"/>
<path d="M0 0 C2 2 2 2 2 6 C-1.21451269 7.60725635 -4.43612536 7.05748185 -8 7 C-8 5.02 -8 3.04 -8 1 C-1.9453125 0.0234375 -1.9453125 0.0234375 0 0 Z " fill="#C98B2B" transform="translate(11,1)"/>
<path d="M0 0 C2.05078125 0.03255208 4.1015625 0.06510417 6.15234375 0.09765625 C6.15234375 0.75765625 6.15234375 1.41765625 6.15234375 2.09765625 C3.84234375 2.42765625 1.53234375 2.75765625 -0.84765625 3.09765625 C-1.17765625 4.41765625 -1.50765625 5.73765625 -1.84765625 7.09765625 C-2.50765625 7.09765625 -3.16765625 7.09765625 -3.84765625 7.09765625 C-2.81269978 0.14866278 -2.81269978 0.14866278 0 0 Z " fill="#7F571B" transform="translate(4.84765625,-0.09765625)"/>
<path d="M0 0 C0.66 0.66 1.32 1.32 2 2 C1.625 4.125 1.625 4.125 1 6 C1 5.01 1 4.02 1 3 C0.01 3 -0.98 3 -2 3 C-2.33 3.66 -2.66 4.32 -3 5 C-3 4.34 -3 3.68 -3 3 C-3.99 3 -4.98 3 -6 3 C-6.33 3.66 -6.66 4.32 -7 5 C-7.33 3.68 -7.66 2.36 -8 1 C-1.9453125 0.0234375 -1.9453125 0.0234375 0 0 Z " fill="#A67221" transform="translate(11,1)"/>
</svg>
