{"asset":{"version":"2.0","generator":"Blockbench 5.1.1 glTF exporter"},"scenes":[{"nodes":[11],"name":"blockbench_export"}],"scene":0,"nodes":[{"translation":[-0.78125,1.0625,-0.375],"name":"mirror_left","mesh":0},{"translation":[0.71875,1.0625,-0.375],"name":"mirror_right","mesh":1},{"translation":[-0.03647801630434783,0.9864130434782609,-0.15056046195652173],"name":"body","mesh":2},{"translation":[-0.05698529411764708,0,-0.203125],"name":"cylinder","mesh":3},{"translation":[-0.5,0.53125,-0.734375],"name":"wheel_left_front","children":[3]},{"translation":[-0.02113970588235292,0,-0.203125],"name":"cylinder","mesh":4},{"translation":[0.5,0.53125,-0.734375],"name":"wheel_right_front","children":[5]},{"translation":[-0.02113970588235292,0,-0.203125],"name":"cylinder","mesh":5},{"translation":[0.5,0.53125,0.703125],"name":"wheel_right_rear","children":[7]},{"translation":[-0.05698529411764708,0,-0.203125],"name":"cylinder","mesh":6},{"translation":[-0.5,0.53125,0.703125],"name":"wheel_left_rear","children":[9]},{"name":"root","children":[0,1,2,4,6,8,10]}],"bufferViews":[{"buffer":0,"byteOffset":0,"byteLength":672,"target":34962,"byteStride":12},{"buffer":0,"byteOffset":672,"byteLength":672,"target":34962,"byteStride":12},{"buffer":0,"byteOffset":1344,"byteLength":448,"target":34962,"byteStride":8},{"buffer":0,"byteOffset":1792,"byteLength":168,"target":34963},{"buffer":0,"byteOffset":1960,"byteLength":672,"target":34962,"byteStride":12},{"buffer":0,"byteOffset":2632,"byteLength":672,"target":34962,"byteStride":12},{"buffer":0,"byteOffset":3304,"byteLength":448,"target":34962,"byteStride":8},{"buffer":0,"byteOffset":3752,"byteLength":168,"target":34963},{"buffer":0,"byteOffset":3920,"byteLength":4320,"target":34962,"byteStride":12},{"buffer":0,"byteOffset":8240,"byteLength":4320,"target":34962,"byteStride":12},{"buffer":0,"byteOffset":12560,"byteLength":2880,"target":34962,"byteStride":8},{"buffer":0,"byteOffset":15440,"byteLength":1080,"target":34963},{"buffer":0,"byteOffset":16520,"byteLength":1728,"target":34962,"byteStride":12},{"buffer":0,"byteOffset":18248,"byteLength":1728,"target":34962,"byteStride":12},{"buffer":0,"byteOffset":19976,"byteLength":1152,"target":34962,"byteStride":8},{"buffer":0,"byteOffset":21128,"byteLength":384,"target":34963},{"buffer":0,"byteOffset":21512,"byteLength":1728,"target":34962,"byteStride":12},{"buffer":0,"byteOffset":23240,"byteLength":1728,"target":34962,"byteStride":12},{"buffer":0,"byteOffset":24968,"byteLength":1152,"target":34962,"byteStride":8},{"buffer":0,"byteOffset":26120,"byteLength":384,"target":34963},{"buffer":0,"byteOffset":26504,"byteLength":1728,"target":34962,"byteStride":12},{"buffer":0,"byteOffset":28232,"byteLength":1728,"target":34962,"byteStride":12},{"buffer":0,"byteOffset":29960,"byteLength":1152,"target":34962,"byteStride":8},{"buffer":0,"byteOffset":31112,"byteLength":384,"target":34963},{"buffer":0,"byteOffset":31496,"byteLength":1728,"target":34962,"byteStride":12},{"buffer":0,"byteOffset":33224,"byteLength":1728,"target":34962,"byteStride":12},{"buffer":0,"byteOffset":34952,"byteLength":1152,"target":34962,"byteStride":8},{"buffer":0,"byteOffset":36104,"byteLength":384,"target":34963}],"buffers":[{"byteLength":36488,"uri":"data:application/octet-stream;base64,"}],"accessors":[{"bufferView":0,"componentType":5126,"count":56,"max":[0.21875,0.1875,0.046875],"min":[-0.0625,0.0625,-0.09375],"type":"VEC3"},{"bufferView":1,"componentType":5126,"count":56,"max":[1,1,0.9970544576644897],"min":[-0.9805806875228882,-1,-1],"type":"VEC3"},{"bufferView":2,"componentType":5126,"count":56,"max":[0.654296875,0.640625],"min":[0,0.052734375],"type":"VEC2"},{"bufferView":3,"componentType":5123,"count":84,"max":[55],"min":[0],"type":"SCALAR"},{"bufferView":4,"componentType":5126,"count":56,"max":[0.0625,0.1875,0.046875],"min":[-0.21875,0.0625,-0.09375],"type":"VEC3"},{"bufferView":5,"componentType":5126,"count":56,"max":[0.9805806875228882,1,0.9970544576644897],"min":[-1,-1,-1],"type":"VEC3"},{"bufferView":6,"componentType":5126,"count":56,"max":[0.654296875,0.640625],"min":[0,0.0390625],"type":"VEC2"},{"bufferView":7,"componentType":5123,"count":84,"max":[55],"min":[0],"type":"SCALAR"},{"bufferView":8,"componentType":5126,"count":360,"max":[0.5364780426025391,0.6385869383811951,1.2130604982376099],"min":[-0.5260219573974609,-0.42391303181648254,-1.3494395017623901],"type":"VEC3"},{"bufferView":9,"componentType":5126,"count":360,"max":[1,1,1],"min":[-1,-1,-1],"type":"VEC3"},{"bufferView":10,"componentType":5126,"count":360,"max":[0.6171875,0.6171875],"min":[0,0],"type":"VEC2"},{"bufferView":11,"componentType":5123,"count":540,"max":[359],"min":[0],"type":"SCALAR"},{"bufferView":12,"componentType":5126,"count":144,"max":[0.2132352888584137,0.28125,0.28125],"min":[-0.0992647036910057,-0.28125,-0.28125],"type":"VEC3"},{"bufferView":13,"componentType":5126,"count":144,"max":[1,1,1],"min":[-1,-1,-1],"type":"VEC3"},{"bufferView":14,"componentType":5126,"count":144,"max":[0.609375,0.609375],"min":[0,0],"type":"VEC2"},{"bufferView":15,"componentType":5123,"count":192,"max":[143],"min":[0],"type":"SCALAR"},{"bufferView":16,"componentType":5126,"count":144,"max":[0.0992647036910057,0.28125,0.28125],"min":[-0.2132352888584137,-0.28125,-0.28125],"type":"VEC3"},{"bufferView":17,"componentType":5126,"count":144,"max":[1,1,1],"min":[-1,-1,-1],"type":"VEC3"},{"bufferView":18,"componentType":5126,"count":144,"max":[0.6171875,0.6171875],"min":[0,0],"type":"VEC2"},{"bufferView":19,"componentType":5123,"count":192,"max":[143],"min":[0],"type":"SCALAR"},{"bufferView":20,"componentType":5126,"count":144,"max":[0.0992647036910057,0.28125,0.28125],"min":[-0.2132352888584137,-0.28125,-0.28125],"type":"VEC3"},{"bufferView":21,"componentType":5126,"count":144,"max":[1,1,1],"min":[-1,-1,-1],"type":"VEC3"},{"bufferView":22,"componentType":5126,"count":144,"max":[0.6328125,0.6328125],"min":[0.00005859374869032763,0.0234375],"type":"VEC2"},{"bufferView":23,"componentType":5123,"count":192,"max":[143],"min":[0],"type":"SCALAR"},{"bufferView":24,"componentType":5126,"count":144,"max":[0.2132352888584137,0.28125,0.28125],"min":[-0.0992647036910057,-0.28125,-0.28125],"type":"VEC3"},{"bufferView":25,"componentType":5126,"count":144,"max":[1,1,1],"min":[-1,-1,-1],"type":"VEC3"},{"bufferView":26,"componentType":5126,"count":144,"max":[0.65625,0.6484375],"min":[0.0390625,0],"type":"VEC2"},{"bufferView":27,"componentType":5123,"count":192,"max":[143],"min":[0],"type":"SCALAR"}],"materials":[{"pbrMetallicRoughness":{"metallicFactor":0,"roughnessFactor":1,"baseColorTexture":{"index":0}},"alphaMode":"MASK","alphaCutoff":0.05,"doubleSided":true}],"textures":[{"sampler":0,"source":0,"name":"texture.png"}],"samplers":[{"magFilter":9728,"minFilter":9728,"wrapS":33071,"wrapT":33071}],"images":[{"mimeType":"image/png","uri":"data:image/png;base64,"}],"meshes":[{"primitives":[{"mode":4,"attributes":{"POSITION":0,"NORMAL":1,"TEXCOORD_0":2},"indices":3,"material":0}]},{"primitives":[{"mode":4,"attributes":{"POSITION":4,"NORMAL":5,"TEXCOORD_0":6},"indices":7,"material":0}]},{"primitives":[{"mode":4,"attributes":{"POSITION":8,"NORMAL":9,"TEXCOORD_0":10},"indices":11,"material":0}]},{"primitives":[{"mode":4,"attributes":{"POSITION":12,"NORMAL":13,"TEXCOORD_0":14},"indices":15,"material":0}]},{"primitives":[{"mode":4,"attributes":{"POSITION":16,"NORMAL":17,"TEXCOORD_0":18},"indices":19,"material":0}]},{"primitives":[{"mode":4,"attributes":{"POSITION":20,"NORMAL":21,"TEXCOORD_0":22},"indices":23,"material":0}]},{"primitives":[{"mode":4,"attributes":{"POSITION":24,"NORMAL":25,"TEXCOORD_0":26},"indices":27,"material":0}]}]}